<svg width="77" height="101" viewBox="0 0 77 101" fill="none" xmlns="http://www.w3.org/2000/svg">
<path d="M2.29864 89.1378V97.9535H0.968526V89.1378H2.29864ZM4.00755 97.9535V97.0668L8.64356 90.2828H3.96881V89.1378H10.2707V90.0245L5.63467 96.8085H10.3094V97.9535H4.00755ZM11.7493 97.9535V97.0668L16.3853 90.2828H11.7106V89.1378H18.0124V90.0245L13.3764 96.8085H18.0512V97.9535H11.7493ZM21.0493 89.1378V97.9535H19.7192V89.1378H21.0493ZM22.5516 90.2828V89.1378H29.3743V90.2828H26.6237V97.9535H25.2979V90.2828H22.5516ZM30.585 97.9535H29.1731L32.3456 89.1378H33.8823L37.0547 97.9535H35.6429L33.1505 90.7391H33.0816L30.585 97.9535ZM30.8217 94.5013H35.4018V95.6204H30.8217V94.5013ZM46.344 91.4536C46.2981 91.0461 46.1087 90.7305 45.7758 90.5066C45.4429 90.2799 45.0239 90.1666 44.5189 90.1666C44.1573 90.1666 43.8445 90.224 43.5805 90.3388C43.3164 90.4507 43.1113 90.6056 42.9649 90.8036C42.8214 90.9988 42.7497 91.2212 42.7497 91.4709C42.7497 91.6803 42.7985 91.8611 42.896 92.0132C42.9965 92.1653 43.127 92.293 43.2878 92.3963C43.4513 92.4968 43.6264 92.5814 43.8129 92.6503C43.9994 92.7163 44.1788 92.7708 44.351 92.8139L45.2119 93.0377C45.4931 93.1066 45.7815 93.1999 46.0771 93.3175C46.3727 93.4352 46.6467 93.5901 46.8993 93.7824C47.1518 93.9747 47.3556 94.2129 47.5105 94.497C47.6684 94.7811 47.7473 95.1211 47.7473 95.5171C47.7473 96.0165 47.6181 96.4598 47.3599 96.8472C47.1045 97.2347 46.7328 97.5403 46.245 97.7641C45.76 97.988 45.1731 98.0999 44.4844 98.0999C43.8244 98.0999 43.2533 97.9951 42.7712 97.7856C42.2891 97.5762 41.9117 97.2791 41.6391 96.8946C41.3665 96.5072 41.2158 96.048 41.1871 95.5171H42.5215C42.5474 95.8357 42.6507 96.1011 42.8315 96.3135C43.0151 96.523 43.249 96.6794 43.5331 96.7827C43.8201 96.8831 44.1343 96.9333 44.4758 96.9333C44.8517 96.9333 45.1861 96.8745 45.4788 96.7569C45.7744 96.6363 46.0068 96.4699 46.1761 96.2575C46.3454 96.0423 46.4301 95.7912 46.4301 95.5042C46.4301 95.2431 46.3555 95.0293 46.2062 94.8628C46.0599 94.6964 45.8604 94.5587 45.6079 94.4496C45.3582 94.3406 45.0756 94.2444 44.7599 94.1612L43.7182 93.8771C43.0123 93.6848 42.4527 93.4022 42.0394 93.0291C41.6291 92.656 41.4239 92.1625 41.4239 91.5483C41.4239 91.0404 41.5616 90.597 41.8371 90.2182C42.1126 89.8394 42.4857 89.5453 42.9563 89.3358C43.4269 89.1234 43.9578 89.0173 44.549 89.0173C45.1459 89.0173 45.6725 89.122 46.1288 89.3315C46.5879 89.541 46.9495 89.8294 47.2135 90.1967C47.4775 90.5612 47.6153 90.9801 47.6268 91.4536H46.344ZM56.6588 92.0046H55.3158C55.2641 91.7176 55.168 91.4651 55.0274 91.247C54.8868 91.0289 54.7146 90.8438 54.5108 90.6917C54.3071 90.5396 54.0789 90.4248 53.8264 90.3474C53.5767 90.2699 53.3113 90.2311 53.0301 90.2311C52.5221 90.2311 52.0673 90.3588 51.6655 90.6142C51.2666 90.8696 50.951 91.2441 50.7185 91.7377C50.4889 92.2313 50.3741 92.834 50.3741 93.5457C50.3741 94.2631 50.4889 94.8686 50.7185 95.3622C50.951 95.8558 51.2681 96.2288 51.6698 96.4814C52.0716 96.7339 52.5236 96.8602 53.0258 96.8602C53.3041 96.8602 53.5681 96.8229 53.8178 96.7482C54.0703 96.6708 54.2985 96.5574 54.5022 96.4082C54.706 96.259 54.8781 96.0767 55.0188 95.8615C55.1622 95.6434 55.2613 95.3937 55.3158 95.1125L56.6588 95.1168C56.5871 95.5501 56.4479 95.949 56.2413 96.3135C56.0375 96.6751 55.7749 96.9879 55.4535 97.2519C55.135 97.513 54.7705 97.7153 54.3602 97.8588C53.9498 98.0023 53.5021 98.074 53.0171 98.074C52.2538 98.074 51.5737 97.8933 50.9768 97.5317C50.3799 97.1672 49.9092 96.6464 49.5649 95.9691C49.2234 95.2919 49.0526 94.484 49.0526 93.5457C49.0526 92.6044 49.2248 91.7966 49.5692 91.1222C49.9136 90.4449 50.3842 89.9255 50.9811 89.5639C51.578 89.1995 52.2567 89.0173 53.0171 89.0173C53.4849 89.0173 53.9211 89.0847 54.3257 89.2196C54.7332 89.3516 55.0991 89.5467 55.4234 89.805C55.7477 90.0604 56.016 90.3732 56.2283 90.7434C56.4407 91.1107 56.5842 91.5311 56.6588 92.0046ZM58.9359 97.9535H57.524L60.6965 89.1378H62.2332L65.4057 97.9535H63.9938L61.5014 90.7391H61.4326L58.9359 97.9535ZM59.1727 94.5013H63.7527V95.6204H59.1727V94.5013ZM66.6787 89.1378H68.293L71.0995 95.9906H71.2028L74.0094 89.1378H75.6236V97.9535H74.3581V91.5742H74.2763L71.6763 97.9406H70.626L68.0261 91.5699H67.9443V97.9535H66.6787V89.1378Z" fill="#004079"/>
<mask id="path-2-inside-1_18_32" fill="white">
<path d="M38.425 0C53.396 0.000141441 66.1022 10.8141 70.6154 25.8232C69.1002 24.7798 67.1693 23.8046 64.8547 22.9326L38.425 31.5908L63.0705 40.875C67.242 39.5085 70.3915 37.8278 72.3293 35.9824C72.3571 36.611 72.3722 37.2436 72.3723 37.8799C72.3723 58.8004 57.1738 75.7606 38.425 75.7607C19.6761 75.7607 4.47675 58.8005 4.47675 37.8799C4.47675 37.2436 4.49094 36.611 4.51874 35.9824C6.45622 37.8281 9.60646 39.5083 13.7785 40.875L38.425 31.5908L11.9953 22.9326C9.6804 23.8047 7.74883 24.7797 6.23358 25.8232C10.7468 10.814 23.4538 0 38.425 0Z"/>
</mask>
<path d="M38.425 0C53.396 0.000141441 66.1022 10.8141 70.6154 25.8232C69.1002 24.7798 67.1693 23.8046 64.8547 22.9326L38.425 31.5908L63.0705 40.875C67.242 39.5085 70.3915 37.8278 72.3293 35.9824C72.3571 36.611 72.3722 37.2436 72.3723 37.8799C72.3723 58.8004 57.1738 75.7606 38.425 75.7607C19.6761 75.7607 4.47675 58.8005 4.47675 37.8799C4.47675 37.2436 4.49094 36.611 4.51874 35.9824C6.45622 37.8281 9.60646 39.5083 13.7785 40.875L38.425 31.5908L11.9953 22.9326C9.6804 23.8047 7.74883 24.7797 6.23358 25.8232C10.7468 10.814 23.4538 0 38.425 0Z" fill="#C1D1D0"/>
<path d="M38.425 0L38.425 -3.03041H38.425V0ZM70.6154 25.8232L68.8966 28.3191L76.0016 33.212L73.5175 24.9506L70.6154 25.8232ZM64.8547 22.9326L65.923 20.0968L64.9249 19.7207L63.9113 20.0528L64.8547 22.9326ZM63.0705 40.875L62.0022 43.7109L63.0003 44.0869L64.0139 43.7548L63.0705 40.875ZM72.3293 35.9824L75.3567 35.8486L75.0625 29.1947L70.2394 33.7879L72.3293 35.9824ZM72.3723 37.8799H75.4027V37.8799L72.3723 37.8799ZM38.425 75.7607V78.7912H38.425L38.425 75.7607ZM4.47675 37.8799L1.44633 37.8799V37.8799H4.47675ZM4.51874 35.9824L6.60897 33.7883L1.78556 29.1933L1.49128 35.8486L4.51874 35.9824ZM13.7785 40.875L12.8351 43.7548L13.8487 44.0869L14.8468 43.7109L13.7785 40.875ZM11.9953 22.9326L12.9387 20.0528L11.9251 19.7207L10.927 20.0968L11.9953 22.9326ZM6.23358 25.8232L3.33153 24.9506L0.847287 33.2124L7.95244 28.319L6.23358 25.8232ZM38.425 0L38.425 3.03041C51.8384 3.03054 63.518 12.7437 67.7134 26.6959L70.6154 25.8232L73.5175 24.9506C68.6865 8.88451 54.9536 -3.03026 38.425 -3.03041L38.425 0ZM70.6154 25.8232L72.3342 23.3274C70.5668 22.1103 68.4027 21.0309 65.923 20.0968L64.8547 22.9326L63.7864 25.7685C65.9359 26.5783 67.6337 27.4493 68.8966 28.3191L70.6154 25.8232ZM64.8547 22.9326L63.9113 20.0528L37.4816 28.711L38.425 31.5908L39.3684 34.4706L65.7981 25.8124L64.8547 22.9326ZM38.425 31.5908L37.3567 34.4267L62.0022 43.7109L63.0705 40.875L64.1388 38.0391L39.4933 28.755L38.425 31.5908ZM63.0705 40.875L64.0139 43.7548C68.3874 42.3221 72.0179 40.4638 74.4192 38.1769L72.3293 35.9824L70.2394 33.7879C68.7652 35.1919 66.0965 36.6948 62.1271 37.9952L63.0705 40.875ZM72.3293 35.9824L69.3018 36.1163C69.3278 36.7039 69.3418 37.2917 69.3418 37.8799L72.3723 37.8799L75.4027 37.8799C75.4027 37.1955 75.3863 36.5181 75.3567 35.8486L72.3293 35.9824ZM72.3723 37.8799H69.3418C69.3418 57.4478 55.1962 72.7302 38.425 72.7303L38.425 75.7607L38.425 78.7912C59.1514 78.791 75.4027 60.153 75.4027 37.8799H72.3723ZM38.425 75.7607V72.7303C21.6536 72.7303 7.50716 57.4478 7.50716 37.8799H4.47675H1.44633C1.44633 60.1532 17.6986 78.7912 38.425 78.7912V75.7607ZM4.47675 37.8799L7.50716 37.8799C7.50716 37.2887 7.52035 36.7007 7.54619 36.1163L4.51874 35.9824L1.49128 35.8486C1.46154 36.5213 1.44634 37.1985 1.44633 37.8799L4.47675 37.8799ZM4.51874 35.9824L2.4285 38.1766C4.82996 40.4643 8.46166 42.3221 12.8351 43.7548L13.7785 40.875L14.7219 37.9952C10.7513 36.6944 8.08248 35.192 6.60897 33.7883L4.51874 35.9824ZM13.7785 40.875L14.8468 43.7109L39.4932 34.4267L38.425 31.5908L37.3567 28.7549L12.7102 38.0391L13.7785 40.875ZM38.425 31.5908L39.3684 28.711L12.9387 20.0528L11.9953 22.9326L11.0519 25.8124L37.4816 34.4706L38.425 31.5908ZM11.9953 22.9326L10.927 20.0968C8.44749 21.0308 6.28256 22.1099 4.51473 23.3275L6.23358 25.8232L7.95244 28.319C9.2151 27.4494 10.9133 26.5785 13.0636 25.7685L11.9953 22.9326ZM6.23358 25.8232L9.13564 26.6959C13.331 12.7436 25.0113 3.03041 38.425 3.03041V0V-3.03041C21.8963 -3.03041 8.16255 8.88426 3.33153 24.9506L6.23358 25.8232Z" fill="#004079" mask="url(#path-2-inside-1_18_32)"/>
</svg>
