<svg width="24" height="24" viewBox="0 0 24 24" fill="none" xmlns="http://www.w3.org/2000/svg">
<path d="M7.5 11.25C7.5 11.0511 7.57902 10.8603 7.71967 10.7197C7.86032 10.579 8.05109 10.5 8.25 10.5H9.75V9C9.75 8.80109 9.82902 8.61032 9.96967 8.46967C10.1103 8.32902 10.3011 8.25 10.5 8.25C10.6989 8.25 10.8897 8.32902 11.0303 8.46967C11.171 8.61032 11.25 8.80109 11.25 9V10.5H12.75C12.9489 10.5 13.1397 10.579 13.2803 10.7197C13.421 10.8603 13.5 11.0511 13.5 11.25C13.5 11.4489 13.421 11.6397 13.2803 11.7803C13.1397 11.921 12.9489 12 12.75 12H11.25V13.5C11.25 13.6989 11.171 13.8897 11.0303 14.0303C10.8897 14.171 10.6989 14.25 10.5 14.25C10.3011 14.25 10.1103 14.171 9.96967 14.0303C9.82902 13.8897 9.75 13.6989 9.75 13.5V12H8.25C8.05109 12 7.86032 11.921 7.71967 11.7803C7.57902 11.6397 7.5 11.4489 7.5 11.25ZM24 11.25V17.25C24 17.6478 23.842 18.0294 23.5607 18.3107C23.2794 18.592 22.8978 18.75 22.5 18.75H20.9062C20.741 19.3953 20.3657 19.9673 19.8395 20.3757C19.3133 20.7842 18.6661 21.0059 18 21.0059C17.3339 21.0059 16.6867 20.7842 16.1605 20.3757C15.6343 19.9673 15.259 19.3953 15.0938 18.75H10.4062C10.241 19.3953 9.86572 19.9673 9.33952 20.3757C8.81331 20.7842 8.16613 21.0059 7.5 21.0059C6.83387 21.0059 6.18669 20.7842 5.66048 20.3757C5.13428 19.9673 4.75898 19.3953 4.59375 18.75H3C2.60218 18.75 2.22064 18.592 1.93934 18.3107C1.65804 18.0294 1.5 17.6478 1.5 17.25V6.75C1.5 6.35218 1.65804 5.97064 1.93934 5.68934C2.22064 5.40804 2.60218 5.25 3 5.25H17.25C17.4489 5.25 17.6397 5.32902 17.7803 5.46967C17.921 5.61032 18 5.80109 18 6V6.75H21.2419C21.542 6.74904 21.8354 6.83851 22.0839 7.00674C22.3324 7.17497 22.5244 7.41415 22.635 7.69312L23.9475 10.9744C23.9824 11.0621 24.0002 11.1556 24 11.25ZM18 8.25V10.5H22.1419L21.2419 8.25H18ZM3 17.25H4.59375C4.75898 16.6047 5.13428 16.0327 5.66048 15.6243C6.18669 15.2158 6.83387 14.9941 7.5 14.9941C8.16613 14.9941 8.81331 15.2158 9.33952 15.6243C9.86572 16.0327 10.241 16.6047 10.4062 17.25H15.0938C15.1944 16.8646 15.3705 16.5029 15.6119 16.1861C15.8532 15.8692 16.1551 15.6034 16.5 15.4041V6.75H3V17.25ZM9 18C9 17.7033 8.91203 17.4133 8.7472 17.1666C8.58238 16.92 8.34811 16.7277 8.07403 16.6142C7.79994 16.5006 7.49834 16.4709 7.20736 16.5288C6.91639 16.5867 6.64912 16.7296 6.43934 16.9393C6.22956 17.1491 6.0867 17.4164 6.02882 17.7074C5.97094 17.9983 6.00065 18.2999 6.11418 18.574C6.22771 18.8481 6.41997 19.0824 6.66665 19.2472C6.91332 19.412 7.20333 19.5 7.5 19.5C7.89782 19.5 8.27936 19.342 8.56066 19.0607C8.84196 18.7794 9 18.3978 9 18ZM19.5 18C19.5 17.7033 19.412 17.4133 19.2472 17.1666C19.0824 16.92 18.8481 16.7277 18.574 16.6142C18.2999 16.5006 17.9983 16.4709 17.7074 16.5288C17.4164 16.5867 17.1491 16.7296 16.9393 16.9393C16.7296 17.1491 16.5867 17.4164 16.5288 17.7074C16.4709 17.9983 16.5006 18.2999 16.6142 18.574C16.7277 18.8481 16.92 19.0824 17.1666 19.2472C17.4133 19.412 17.7033 19.5 18 19.5C18.3978 19.5 18.7794 19.342 19.0607 19.0607C19.342 18.7794 19.5 18.3978 19.5 18ZM22.5 17.25V12H18V15C18.6651 15.0006 19.3112 15.2218 19.8371 15.629C20.363 16.0362 20.739 16.6063 20.9062 17.25H22.5Z" fill="black"/>
</svg>
