<svg width="24" height="24" viewBox="0 0 24 24" fill="none" xmlns="http://www.w3.org/2000/svg">
<path d="M19.8431 15.5194C21.1087 14.9719 21.75 13.5347 21.75 11.25C21.75 8.96531 21.1087 7.52812 19.8431 6.97969C18.7509 6.51094 17.2894 6.77063 15.4875 7.7625C16.4794 5.96063 16.7428 4.49906 16.2703 3.40688C15.7219 2.14125 14.2847 1.5 12 1.5C9.71531 1.5 8.27812 2.14125 7.72969 3.40688C7.26094 4.49906 7.52063 5.96063 8.5125 7.76156C6.71063 6.77063 5.25 6.50625 4.15688 6.97969C2.89125 7.52812 2.25 8.96531 2.25 11.25C2.25 13.5347 2.89125 14.9719 4.15688 15.5194C4.52616 15.676 4.92388 15.7546 5.325 15.75C6.225 15.75 7.29375 15.4106 8.5125 14.7384C7.52063 16.5384 7.25719 18 7.72969 19.0922C8.27812 20.3578 9.71531 21 12 21C14.2847 21 15.7219 20.3578 16.2703 19.0922C16.4543 18.6476 16.5295 18.1655 16.4897 17.6859C17.4694 19.2075 18.3309 20.9184 18.7725 22.6856C18.8138 22.8472 18.9077 22.9904 19.0395 23.0926C19.1712 23.1948 19.3333 23.2502 19.5 23.25C19.5616 23.2499 19.623 23.2424 19.6828 23.2275C19.8757 23.1792 20.0416 23.0563 20.1439 22.8858C20.2462 22.7153 20.2766 22.5111 20.2284 22.3181C19.5778 19.7156 18.1406 17.2744 16.6791 15.3066C17.4147 15.6022 18.08 15.75 18.675 15.75C19.0761 15.7546 19.4738 15.676 19.8431 15.5194ZM19.2459 8.35687C20.0756 8.71875 20.25 10.125 20.25 11.25C20.25 12.375 20.0756 13.7812 19.2469 14.1431C18.4631 14.4834 17.0419 14.0203 15.2456 12.8391C14.511 12.3491 13.8054 11.817 13.1325 11.2453C14.8584 9.78469 17.85 7.75125 19.2459 8.35687ZM9.10687 4.00313C9.46875 3.17438 10.875 3 12 3C13.125 3 14.5312 3.17438 14.8931 4.00313C15.2334 4.78688 14.7703 6.20812 13.5891 8.00437C13.0991 8.73899 12.567 9.44455 11.9953 10.1175C10.5347 8.39156 8.50219 5.39906 9.10687 4.00313ZM4.75406 14.1431C3.92437 13.7812 3.75 12.375 3.75 11.25C3.75 10.125 3.92438 8.71875 4.75313 8.35687C4.94052 8.2809 5.14161 8.24452 5.34375 8.25C6.16406 8.25 7.34438 8.73469 8.75625 9.66281C9.49087 10.1527 10.1964 10.6849 10.8694 11.2566C9.14156 12.7144 6.14906 14.7487 4.75406 14.1431ZM14.8931 18.4959C14.5312 19.3256 13.125 19.5 12 19.5C10.875 19.5 9.46875 19.3256 9.10687 18.4969C8.76656 17.7131 9.22969 16.2919 10.4109 14.4956C10.9009 13.761 11.433 13.0554 12.0047 12.3825C13.4653 14.1084 15.4978 17.1009 14.8931 18.4959Z" fill="black"/>
</svg>
