<svg width="24" height="24" viewBox="0 0 24 24" fill="none" xmlns="http://www.w3.org/2000/svg">
<path d="M20.8397 11.5369L12.5897 1.03687C12.5195 0.947576 12.43 0.875383 12.3278 0.825741C12.2257 0.776099 12.1136 0.750305 12 0.750305C11.8864 0.750305 11.7743 0.776099 11.6722 0.825741C11.57 0.875383 11.4805 0.947576 11.4103 1.03687L3.16032 11.5369C3.05661 11.669 3.00024 11.8321 3.00024 12C3.00024 12.1679 3.05661 12.331 3.16032 12.4631L11.4103 22.9631C11.4805 23.0524 11.57 23.1246 11.6722 23.1743C11.7743 23.2239 11.8864 23.2497 12 23.2497C12.1136 23.2497 12.2257 23.2239 12.3278 23.1743C12.43 23.1246 12.5195 23.0524 12.5897 22.9631L20.8397 12.4631C20.9434 12.331 20.9998 12.1679 20.9998 12C20.9998 11.8321 20.9434 11.669 20.8397 11.5369ZM12.75 3.66844L19.0706 11.7122L12.75 14.5856V3.66844ZM11.25 14.5856L4.92938 11.7122L11.25 3.66844V14.5856ZM11.25 16.2328V20.3316L6.24094 13.9566L11.25 16.2328ZM12.75 16.2328L17.7591 13.9556L12.75 20.3306V16.2328Z" fill="black"/>
</svg>
