<svg width="24" height="24" viewBox="0 0 24 24" fill="none" xmlns="http://www.w3.org/2000/svg">
<path d="M20.9063 5.34372C19.8862 4.32623 18.5045 3.75436 17.0637 3.75331C15.6229 3.75226 14.2404 4.3221 13.2188 5.3381L12 6.51278L10.7813 5.33528C9.76121 4.31586 8.37798 3.7434 6.93585 3.74384C5.49373 3.74428 4.11084 4.31758 3.09142 5.33763C2.07199 6.35767 1.49953 7.74091 1.49997 9.18303C1.50041 10.6252 2.07371 12.008 3.09376 13.0275L11.4722 21.5268C11.542 21.5977 11.6252 21.654 11.7169 21.6924C11.8087 21.7308 11.9071 21.7506 12.0066 21.7506C12.106 21.7506 12.2045 21.7308 12.2962 21.6924C12.388 21.654 12.4712 21.5977 12.5409 21.5268L20.9063 13.0312C21.9232 12.0105 22.4942 10.6283 22.4942 9.18747C22.4942 7.7466 21.9232 6.36445 20.9063 5.34372ZM19.8413 11.9775L12 19.9312L4.1522 11.97C3.41374 11.2314 2.99892 10.2297 2.99901 9.18526C2.9991 8.14083 3.41408 7.13921 4.15267 6.40075C4.89125 5.66229 5.89294 5.24748 6.93737 5.24756C7.9818 5.24765 8.98342 5.66263 9.72188 6.40122L9.73126 6.41059L10.9191 7.55341L9.98157 8.4581C9.90975 8.52723 9.85242 8.60998 9.81295 8.70152C9.77349 8.79307 9.75266 8.89156 9.7517 8.99124C9.75074 9.09093 9.76966 9.1898 9.80736 9.28209C9.84506 9.37438 9.90078 9.45822 9.97126 9.52872L12.4397 12L11.4694 12.9703C11.3287 13.111 11.2496 13.3019 11.2496 13.5009C11.2496 13.6999 11.3287 13.8908 11.4694 14.0315C11.6101 14.1723 11.801 14.2513 12 14.2513C12.199 14.2513 12.3899 14.1723 12.5306 14.0315L14.0306 12.5315C14.1712 12.3909 14.2501 12.2002 14.2501 12.0014C14.2501 11.8025 14.1712 11.6119 14.0306 11.4712L11.5706 9.00841L14.2688 6.41059L14.2791 6.40122C14.645 6.03576 15.0793 5.74594 15.5572 5.54831C16.0351 5.35069 16.5472 5.24913 17.0644 5.24944C17.5815 5.24974 18.0935 5.3519 18.5712 5.55009C19.0489 5.74828 19.4828 6.03861 19.8483 6.4045C20.2138 6.7704 20.5036 7.20469 20.7012 7.68259C20.8988 8.1605 21.0004 8.67264 21.0001 9.18979C20.9998 9.70694 20.8976 10.219 20.6994 10.6966C20.5012 11.1743 20.2109 11.6083 19.845 11.9737L19.8413 11.9775Z" fill="black"/>
</svg>
