<svg width="24" height="24" viewBox="0 0 24 24" fill="none" xmlns="http://www.w3.org/2000/svg">
<path d="M13.7194 9.21937L15.4397 7.49999L13.7194 5.78062C13.5787 5.63989 13.4996 5.44902 13.4996 5.24999C13.4996 5.05097 13.5787 4.8601 13.7194 4.71937C13.8601 4.57864 14.051 4.49958 14.25 4.49958C14.449 4.49958 14.6399 4.57864 14.7806 4.71937L16.5 6.43968L18.2194 4.71937C18.3601 4.57864 18.551 4.49958 18.75 4.49958C18.949 4.49958 19.1399 4.57864 19.2806 4.71937C19.4214 4.8601 19.5004 5.05097 19.5004 5.24999C19.5004 5.44902 19.4214 5.63989 19.2806 5.78062L17.5613 7.49999L19.2806 9.21937C19.3503 9.28905 19.4056 9.37178 19.4433 9.46282C19.481 9.55387 19.5004 9.65145 19.5004 9.74999C19.5004 9.84854 19.481 9.94612 19.4433 10.0372C19.4056 10.1282 19.3503 10.2109 19.2806 10.2806C19.211 10.3503 19.1282 10.4056 19.0372 10.4433C18.9461 10.481 18.8486 10.5004 18.75 10.5004C18.6515 10.5004 18.5539 10.481 18.4628 10.4433C18.3718 10.4056 18.2891 10.3503 18.2194 10.2806L16.5 8.56031L14.7806 10.2806C14.6399 10.4213 14.449 10.5004 14.25 10.5004C14.051 10.5004 13.8601 10.4213 13.7194 10.2806C13.5787 10.1399 13.4996 9.94902 13.4996 9.74999C13.4996 9.55097 13.5787 9.3601 13.7194 9.21937ZM20.9888 17.1637C20.8216 18.4341 20.1977 19.6001 19.2337 20.4441C18.2696 21.2881 17.0313 21.7523 15.75 21.75C8.30626 21.75 2.25001 15.6937 2.25001 8.24999C2.24771 6.9687 2.7119 5.73039 3.55588 4.76633C4.39986 3.80228 5.56592 3.17841 6.83626 3.01124C7.1575 2.97202 7.4828 3.03774 7.76362 3.19859C8.04444 3.35945 8.2657 3.6068 8.39438 3.90374L10.3744 8.32406V8.33531C10.4729 8.56261 10.5136 8.81077 10.4928 9.05763C10.472 9.30449 10.3904 9.54236 10.2553 9.74999C10.2384 9.77531 10.2206 9.79874 10.2019 9.82218L8.25001 12.1359C8.9522 13.5628 10.4447 15.0422 11.8903 15.7462L14.1722 13.8047C14.1946 13.7858 14.2181 13.7683 14.2425 13.7522C14.45 13.6138 14.6887 13.5293 14.937 13.5064C15.1853 13.4835 15.4354 13.5229 15.6647 13.6209L15.6769 13.6266L20.0934 15.6056C20.3909 15.7338 20.6389 15.9549 20.8003 16.2358C20.9616 16.5166 21.0278 16.8422 20.9888 17.1637ZM19.5 16.9762C19.5 16.9762 19.4934 16.9762 19.4897 16.9762L15.0834 15.0028L12.8006 16.9444C12.7785 16.9631 12.7553 16.9807 12.7313 16.9969C12.5154 17.1409 12.2659 17.2264 12.0071 17.2452C11.7483 17.2639 11.489 17.2152 11.2547 17.1037C9.49876 16.2553 7.74845 14.5181 6.89907 12.7809C6.7866 12.5483 6.73613 12.2906 6.75255 12.0327C6.76898 11.7748 6.85174 11.5255 6.99282 11.3091C7.00872 11.2836 7.02659 11.2595 7.04626 11.2369L9.00001 8.92031L7.03126 4.51406C7.03089 4.51032 7.03089 4.50655 7.03126 4.50281C6.12212 4.6214 5.28739 5.06733 4.68339 5.7571C4.0794 6.44687 3.74755 7.33316 3.75001 8.24999C3.75348 11.4315 5.01888 14.4818 7.26856 16.7314C9.51825 18.9811 12.5685 20.2465 15.75 20.25C16.6663 20.2531 17.5523 19.9225 18.2425 19.3198C18.9327 18.7171 19.3797 17.8837 19.5 16.9753V16.9762Z" fill="black"/>
</svg>
