<svg width="24" height="24" viewBox="0 0 24 24" fill="none" xmlns="http://www.w3.org/2000/svg">
<path d="M13.125 19.1251C13.125 19.3476 13.059 19.5651 12.9354 19.7501C12.8118 19.9351 12.6361 20.0793 12.4305 20.1644C12.2249 20.2496 11.9987 20.2718 11.7805 20.2284C11.5623 20.185 11.3618 20.0779 11.2045 19.9205C11.0472 19.7632 10.94 19.5628 10.8966 19.3445C10.8532 19.1263 10.8755 18.9001 10.9606 18.6945C11.0458 18.489 11.19 18.3133 11.375 18.1897C11.56 18.066 11.7775 18.0001 12 18.0001C12.2984 18.0001 12.5845 18.1186 12.7955 18.3296C13.0065 18.5405 13.125 18.8267 13.125 19.1251ZM22.2262 8.15631C19.343 5.79135 15.7291 4.49884 12 4.49884C8.27087 4.49884 4.65702 5.79135 1.77374 8.15631C1.69759 8.21885 1.63451 8.29578 1.58809 8.3827C1.54168 8.46962 1.51284 8.56483 1.50322 8.6629C1.4936 8.76096 1.50339 8.85997 1.53203 8.95425C1.56067 9.04853 1.6076 9.13625 1.67015 9.2124C1.73269 9.28855 1.80962 9.35163 1.89654 9.39804C1.98346 9.44446 2.07867 9.4733 2.17674 9.48292C2.37479 9.50235 2.57245 9.4423 2.72624 9.31599C5.34112 7.17166 8.61831 5.99976 12 5.99976C15.3817 5.99976 18.6589 7.17166 21.2737 9.31599C21.4275 9.4423 21.6252 9.50235 21.8232 9.48292C22.0213 9.46349 22.2035 9.36618 22.3298 9.2124C22.4561 9.05861 22.5162 8.86095 22.4968 8.6629C22.4773 8.46484 22.38 8.28261 22.2262 8.15631ZM19.2187 11.5097C17.165 9.88376 14.6223 8.99907 12.0028 8.99907C9.38332 8.99907 6.84061 9.88376 4.78686 11.5097C4.63097 11.6333 4.53054 11.8138 4.50769 12.0114C4.48483 12.209 4.54141 12.4076 4.66499 12.5635C4.78856 12.7194 4.96901 12.8198 5.16662 12.8427C5.36424 12.8655 5.56284 12.8089 5.71874 12.6854C7.50736 11.2696 9.72166 10.4993 12.0028 10.4993C14.2839 10.4993 16.4982 11.2696 18.2869 12.6854C18.3641 12.7466 18.4525 12.792 18.5473 12.819C18.642 12.846 18.7411 12.854 18.839 12.8427C18.9368 12.8314 19.0315 12.8009 19.1176 12.753C19.2036 12.7051 19.2794 12.6407 19.3406 12.5635C19.4018 12.4863 19.4472 12.3978 19.4742 12.3031C19.5012 12.2083 19.5093 12.1092 19.4979 12.0114C19.4866 11.9135 19.4562 11.8189 19.4082 11.7328C19.3603 11.6467 19.2959 11.5709 19.2187 11.5097ZM16.1944 14.8622C14.9761 13.9769 13.5088 13.5 12.0028 13.5C10.4968 13.5 9.02949 13.9769 7.81124 14.8622C7.65037 14.9794 7.54261 15.1556 7.51167 15.3521C7.48072 15.5487 7.52913 15.7495 7.64624 15.9104C7.76335 16.0712 7.93957 16.179 8.13613 16.2099C8.33269 16.2409 8.53349 16.1925 8.69436 16.0754C9.65579 15.3762 10.814 14.9995 12.0028 14.9995C13.1916 14.9995 14.3498 15.3762 15.3112 16.0754C15.3909 16.1334 15.4812 16.1751 15.577 16.1982C15.6728 16.2213 15.7721 16.2253 15.8695 16.2099C15.9668 16.1946 16.0602 16.1603 16.1442 16.1089C16.2283 16.0575 16.3014 15.99 16.3594 15.9104C16.4174 15.8307 16.4591 15.7404 16.4822 15.6446C16.5053 15.5489 16.5093 15.4495 16.4939 15.3521C16.4786 15.2548 16.4443 15.1614 16.3929 15.0774C16.3415 14.9933 16.274 14.9202 16.1944 14.8622Z" fill="black"/>
</svg>
